<?xml version="1.0" encoding="UTF-8"?>
<svg version="1.1" xmlns="http://www.w3.org/2000/svg" width="192" height="192">
<path d="M0 0 C2.49311325 -0.00665619 4.98242247 -0.06167771 7.47485352 -0.11791992 C16.58693362 -0.21360024 23.91757909 0.09092386 31.03149414 6.5559082 C36.62677979 13.19840526 35.90093725 22.29902168 36.03149414 30.5559082 C36.04664062 31.41651855 36.06178711 32.27712891 36.07739258 33.16381836 C36.17243754 39.6303533 36.13212103 46.08974299 36.03149414 52.5559082 C36.02061768 53.79099121 36.02061768 53.79099121 36.00952148 55.05102539 C35.80345563 72.01827835 35.80345563 72.01827835 30.03149414 78.5559082 C24.48728251 83.56515204 19.4231146 84.74005192 12.15649414 85.1184082 C11.36710449 85.1601416 10.57771484 85.201875 9.7644043 85.24487305 C0.18640443 85.70346401 -9.38273042 85.73234503 -18.96850586 85.5559082 C-19.74629395 85.54333984 -20.52408203 85.53077148 -21.32543945 85.51782227 C-37.48542899 85.17391804 -37.48542899 85.17391804 -42.96850586 80.5559082 C-50.02604568 72.78995919 -49.80892429 64.38188661 -49.5859375 54.5 C-49.53163749 52.02223027 -49.52440706 49.54787991 -49.52514648 47.06958008 C-49.47341294 39.03126747 -48.99050464 31.15336915 -47.68334961 23.21606445 C-47.57624161 22.53056015 -47.46913361 21.84505585 -47.35877991 21.13877869 C-46.47533496 16.36722575 -44.95152312 13.28314586 -41.96850586 9.5559082 C-41.30850586 9.5559082 -40.64850586 9.5559082 -39.96850586 9.5559082 C-39.63850586 8.5659082 -39.30850586 7.5759082 -38.96850586 6.5559082 C-35.10235209 3.62204411 -31.06840255 2.68540476 -26.37084961 1.90356445 C-25.63156723 1.77804703 -24.89228485 1.6525296 -24.13059998 1.52320862 C-16.10532871 0.2675732 -8.11188542 -0.00242025 0 0 Z " fill="#9558B6" transform="translate(54.968505859375,5.444091796875)"/>
<path d="M0 0 C6.46632046 -0.09504181 12.92618681 -0.06519549 19.39208984 0.04589844 C20.63514893 0.06475098 20.63514893 0.06475098 21.90332031 0.08398438 C39.91165595 0.44437173 39.91165595 0.44437173 46.70458984 7.42089844 C50.3024333 13.01754381 51.87576268 17.52012074 52.07958984 24.17089844 C52.1122998 24.95005615 52.14500977 25.72921387 52.17871094 26.53198242 C52.52343469 35.70364067 52.54798012 44.87038028 52.39208984 54.04589844 C52.38121338 55.23771729 52.38121338 55.23771729 52.37011719 56.45361328 C52.16688337 73.06022762 52.16688337 73.06022762 46.39208984 79.04589844 C41.00513573 84.16350485 36.33102398 85.29881803 28.99365234 85.31152344 C28.28163666 85.31343689 27.56962097 85.31535034 26.83602905 85.31732178 C25.32818244 85.31867947 23.82032398 85.31501206 22.3125 85.30664062 C20.05879742 85.29609362 17.8059214 85.30646628 15.55224609 85.31933594 C-13.26123809 85.34943166 -13.26123809 85.34943166 -23.60791016 78.04589844 C-23.60791016 77.38589844 -23.60791016 76.72589844 -23.60791016 76.04589844 C-24.59791016 75.71589844 -25.58791016 75.38589844 -26.60791016 75.04589844 C-29.54177425 71.17974467 -30.4784136 67.14579513 -31.26025391 62.44824219 C-31.38577133 61.70895981 -31.51128876 60.96967743 -31.64060974 60.20799255 C-32.89624516 52.18272129 -33.16623861 44.189278 -33.16381836 36.07739258 C-33.17047455 33.58427933 -33.22549606 31.09497011 -33.28173828 28.60253906 C-33.3774186 19.49045896 -33.0728945 12.15981349 -26.60791016 5.04589844 C-19.38872082 -1.03516206 -8.9341886 0.15723904 0 0 Z " fill="#9558B7" transform="translate(38.60791015625,100.9541015625)"/>
<path d="M0 0 C2.47776973 0.05430001 4.95212009 0.06153044 7.43041992 0.06079102 C15.46873253 0.11252456 23.34663085 0.59543286 31.28393555 1.90258789 C32.312192 2.06324989 32.312192 2.06324989 33.36122131 2.22715759 C38.13277425 3.11060254 41.21685414 4.63441438 44.9440918 7.61743164 C44.9440918 8.27743164 44.9440918 8.93743164 44.9440918 9.61743164 C45.9340918 9.94743164 46.9240918 10.27743164 47.9440918 10.61743164 C55.89329889 20.47444844 54.17619397 38.50749939 54.23925781 50.45874023 C54.25084169 51.98487573 54.27139337 53.51096875 54.30078125 55.03686523 C54.60484664 70.89922645 54.60484664 70.89922645 49.9440918 77.61743164 C44.65872394 83.09261291 39.91797718 84.91385249 32.4440918 85.24243164 C31.70215576 85.27965332 30.96021973 85.316875 30.19580078 85.35522461 C21.11069104 85.76496561 12.0351727 85.76823997 2.9440918 85.61743164 C2.12102539 85.61018066 1.29795898 85.60292969 0.44995117 85.59545898 C-17.09896165 85.38986211 -17.09896165 85.38986211 -24.0559082 79.61743164 C-24.56250977 79.21266602 -25.06911133 78.80790039 -25.59106445 78.39086914 C-29.64153136 73.48710387 -30.46664658 68.24824166 -30.7434082 62.05493164 C-30.77611816 61.33313721 -30.80882813 60.61134277 -30.8425293 59.86767578 C-31.23141801 50.1217953 -31.2275146 40.36796109 -31.0559082 30.61743164 C-31.04333984 29.82256348 -31.03077148 29.02769531 -31.01782227 28.20874023 C-30.67790905 12.1044843 -30.67790905 12.1044843 -26.0559082 6.61743164 C-18.28995919 -0.44010818 -9.88188661 -0.22298679 0 0 Z " fill="#AF6AB4" transform="translate(132.055908203125,5.382568359375)"/>
<path d="M0 0 C1.19181885 0.01885254 1.19181885 0.01885254 2.40771484 0.03808594 C19.93646303 0.39440565 19.93646303 0.39440565 25 5 C31.16810142 12.74526153 31.18634634 19.89861557 31.18530273 29.4465332 C31.18744802 31.63448798 31.20548948 33.82190292 31.22460938 36.00976562 C31.3455995 65.59373405 31.3455995 65.59373405 24 76 C23.34 76 22.68 76 22 76 C21.505 77.485 21.505 77.485 21 79 C11.15531099 86.93926533 -6.84773118 85.23199858 -18.78637695 85.29516602 C-20.30567704 85.30673636 -21.82493491 85.32726733 -23.34399414 85.35668945 C-32.05718942 85.5246298 -39.22359212 85.47518592 -47 81 C-47 80.34 -47 79.68 -47 79 C-47.66 79 -48.32 79 -49 79 C-53.66841602 71.62089081 -53.86170974 64.5615857 -54 56 C-54.01514648 55.12263184 -54.03029297 54.24526367 -54.04589844 53.34130859 C-54.14187247 46.55875382 -54.1117481 39.7821588 -54 33 C-53.98743164 32.15421387 -53.97486328 31.30842773 -53.96191406 30.43701172 C-53.77134686 20.84059208 -53.32790543 13.52181038 -47.1875 5.6875 C-41.83118163 1.55548297 -36.44532348 0.51813454 -29.8125 0.3125 C-29.037854 0.27979004 -28.26320801 0.24708008 -27.46508789 0.21337891 C-18.31104539 -0.1326093 -9.15802667 -0.17206766 0 0 Z " fill="#B06CB5" transform="translate(155,101)"/>
<path d="M0 0 C1.27166016 -0.00427002 2.54332031 -0.00854004 3.85351562 -0.01293945 C5.22136328 -0.00483269 6.58920309 0.00471319 7.95703125 0.015625 C8.64015381 0.01905914 9.32327637 0.02249329 10.02709961 0.02603149 C35.61967179 0.17818844 35.61967179 0.17818844 42.05859375 4.4453125 C49.12313532 11.7948788 47.02324436 27.30723673 47.1729126 36.96658325 C47.19559971 38.32908833 47.22547055 39.69149333 47.26263428 41.05368042 C47.31046478 42.99365353 47.31993652 44.93445462 47.328125 46.875 C47.34157959 48.00905273 47.35503418 49.14310547 47.36889648 50.31152344 C46.76953125 53.265625 46.76953125 53.265625 44.82617188 55.63623047 C40.57829029 57.90063636 37.04810366 57.80455144 32.3046875 57.7265625 C31.39375839 57.72564606 30.48282928 57.72472961 29.54429626 57.7237854 C27.622007 57.71775635 25.69972682 57.70203127 23.77758789 57.67724609 C20.84551098 57.64079259 17.91470156 57.63622663 14.98242188 57.63671875 C13.11066623 57.62688453 11.2389191 57.61522621 9.3671875 57.6015625 C8.49514175 57.59933685 7.62309601 57.59711121 6.72462463 57.59481812 C1.36018323 57.51177753 -3.54166817 57.21268749 -8.04296875 53.953125 C-11.09285906 49.61907035 -10.39121101 43.79844942 -10.3984375 38.7109375 C-10.4017659 37.89116425 -10.4050943 37.07139099 -10.40852356 36.22677612 C-10.41357268 34.49705565 -10.41593251 32.76732549 -10.41577148 31.03759766 C-10.41795565 28.4064104 -10.43612623 25.77564431 -10.45507812 23.14453125 C-10.45801303 21.45833476 -10.45999718 19.77213629 -10.4609375 18.0859375 C-10.46812302 17.30654816 -10.47530853 16.52715881 -10.48271179 15.72415161 C-10.44718504 7.13156137 -10.00875567 0.01961814 0 0 Z " fill="#D7ECF2" transform="translate(125.23046875,19.734375)"/>
<path d="M0 0 C0.96787949 -0.01268417 1.93575897 -0.02536835 2.93296814 -0.03843689 C3.97675125 -0.03550125 5.02053436 -0.03256561 6.09594727 -0.02954102 C7.70675926 -0.03740379 7.70675926 -0.03740379 9.35011292 -0.04542542 C11.62223445 -0.05185173 13.89438922 -0.05050078 16.16650391 -0.04199219 C19.64554051 -0.03348836 23.1229326 -0.06222697 26.60180664 -0.09399414 C28.80818636 -0.09560634 31.01456898 -0.09502827 33.22094727 -0.09204102 C34.26270615 -0.10327499 35.30446503 -0.11450897 36.37779236 -0.12608337 C40.33117235 -0.08789053 43.32623266 -0.05029499 46.8815918 1.74731445 C49.10391416 6.14268196 48.77326886 10.55602775 48.72094727 15.40795898 C48.7224025 16.48279037 48.72385773 17.55762177 48.72535706 18.6650238 C48.72369809 20.93540154 48.71213723 23.20579053 48.69140625 25.47607422 C48.66243213 28.95710828 48.67080189 32.43662167 48.68383789 35.91772461 C48.67760117 38.12281016 48.66921076 40.32789089 48.65844727 42.53295898 C48.6613829 43.5767421 48.66431854 44.62052521 48.66734314 45.69593811 C48.64831688 47.14775734 48.64831688 47.14775734 48.62890625 48.62890625 C48.62350327 49.48065933 48.61810028 50.33241241 48.61253357 51.2099762 C48.13653274 53.90390447 47.4110239 54.79655684 45.22485352 56.40405273 C42.16894531 56.77636719 42.16894531 56.77636719 38.42407227 56.76733398 C37.7512471 56.76783249 37.07842194 56.76833099 36.38520813 56.7688446 C34.95534324 56.76650339 33.52547429 56.75677187 32.09570312 56.74023438 C29.95801652 56.71704802 27.82161478 56.71962153 25.68383789 56.72631836 C2.42476046 56.6809096 2.42476046 56.6809096 -4.02514648 52.09155273 C-9.26982092 43.61412031 -8.12104136 30.620573 -8.09082031 20.91625977 C-8.08759791 18.74634238 -8.11144831 16.57771498 -8.13647461 14.40795898 C-8.13874249 13.01863777 -8.13945349 11.62931292 -8.13842773 10.23999023 C-8.14289917 8.37673096 -8.14289917 8.37673096 -8.14746094 6.47583008 C-7.77514648 3.40405273 -7.77514648 3.40405273 -6.55032349 1.73731995 C-4.24295393 0.00434336 -2.87053311 0.01820885 0 0 Z " fill="#DFF0FA" transform="translate(27.775146484375,115.595947265625)"/>
<path d="M0 0 C2.16104629 0.00322878 4.32080452 -0.02066034 6.48168945 -0.0456543 C7.86645337 -0.04792167 9.25122093 -0.04863341 10.63598633 -0.04760742 C11.87179443 -0.05058838 13.10760254 -0.05356934 14.38085938 -0.05664062 C17.43676758 0.31567383 17.43676758 0.31567383 19.10250854 1.54049683 C20.83675687 3.8478432 20.82260709 5.21959836 20.84082031 8.09082031 C20.85350449 9.0586998 20.86618866 10.02657928 20.8792572 11.02378845 C20.87632156 12.06757156 20.87338593 13.11135468 20.87036133 14.18676758 C20.87560318 15.26064224 20.88084503 16.33451691 20.88624573 17.44093323 C20.89267205 19.71305476 20.89132109 21.98520953 20.8828125 24.25732422 C20.87430867 27.73636083 20.90304729 31.21375291 20.93481445 34.69262695 C20.93642665 36.89900667 20.93584858 39.1053893 20.93286133 41.31176758 C20.94409531 42.35352646 20.95532928 43.39528534 20.96690369 44.46861267 C20.92871084 48.42199266 20.8911153 51.41705297 19.09350586 54.97241211 C14.69813836 57.19473448 10.28479257 56.86408918 5.43286133 56.81176758 C3.82061424 56.81395042 3.82061424 56.81395042 2.17579651 56.81617737 C-0.09458123 56.81451841 -2.36497021 56.80295755 -4.63525391 56.78222656 C-8.11628797 56.75325244 -11.59580136 56.76162221 -15.0769043 56.7746582 C-17.28198984 56.76842148 -19.48707057 56.76003107 -21.69213867 56.74926758 C-22.73592178 56.75220322 -23.7797049 56.75513885 -24.8551178 56.75816345 C-25.82299728 56.74547928 -26.79087677 56.7327951 -27.78808594 56.71972656 C-28.63983902 56.71432358 -29.4915921 56.70892059 -30.36915588 56.70335388 C-33.06308416 56.22735305 -33.95573653 55.50184421 -35.56323242 53.31567383 C-35.93554688 50.25976562 -35.93554688 50.25976562 -35.92651367 46.51489258 C-35.92701218 45.84206741 -35.92751068 45.16924225 -35.92802429 44.47602844 C-35.92568307 43.04616355 -35.91595156 41.61629461 -35.89941406 40.18652344 C-35.8762277 38.04883683 -35.87880122 35.91243509 -35.88549805 33.7746582 C-35.84690173 10.24832701 -35.84690173 10.24832701 -31.37426758 4.50463867 C-23.60191862 -1.547722 -9.59407053 -0.03005452 0 0 Z " fill="#DFF2FA" transform="translate(55.563232421875,19.684326171875)"/>
<path d="M0 0 C1.07483139 -0.00145523 2.14966278 -0.00291046 3.25706482 -0.00440979 C5.52744256 -0.00275083 7.79783154 0.00881003 10.06811523 0.02954102 C13.54914929 0.05851514 17.02866269 0.05014537 20.50976562 0.03710938 C22.71485117 0.04334609 24.9199319 0.05173651 27.125 0.0625 C28.69067467 0.05809654 28.69067467 0.05809654 30.28797913 0.05360413 C31.25585861 0.0662883 32.2237381 0.07897247 33.22094727 0.09204102 C34.07270035 0.097444 34.92445343 0.10284698 35.80201721 0.1084137 C38.49386163 0.58404632 39.38666108 1.31482827 40.99609375 3.49609375 C41.3684082 6.46020508 41.3684082 6.46020508 41.359375 10.078125 C41.36012276 11.05406868 41.36012276 11.05406868 41.36088562 12.04972839 C41.35854462 13.43251585 41.34881437 14.81530752 41.33227539 16.19799805 C41.30910229 18.26327077 41.31166089 20.32721219 41.31835938 22.39257812 C41.27374219 46.95010024 41.27374219 46.95010024 34.99609375 53.49609375 C32.59375 54.38671875 32.59375 54.38671875 30.05859375 54.74609375 C29.22457031 54.875 28.39054687 55.00390625 27.53125 55.13671875 C26.69464844 55.2553125 25.85804688 55.37390625 24.99609375 55.49609375 C24.27107666 55.66431641 23.54605957 55.83253906 22.79907227 56.00585938 C17.30358328 56.96700752 11.67843797 56.72161135 6.11181641 56.73632812 C3.87105003 56.74609394 1.63117889 56.77718182 -0.609375 56.80859375 C-2.03515083 56.81511904 -3.46093318 56.82037137 -4.88671875 56.82421875 C-6.17980957 56.83356445 -7.47290039 56.84291016 -8.80517578 56.85253906 C-12.00390625 56.49609375 -12.00390625 56.49609375 -13.67857361 55.27226257 C-15.40093863 52.96400354 -15.38978294 51.58630841 -15.40795898 48.72094727 C-15.42064316 47.75306778 -15.43332733 46.78518829 -15.44639587 45.78797913 C-15.44346024 44.74419601 -15.4405246 43.7004129 -15.4375 42.625 C-15.44274185 41.55112534 -15.4479837 40.47725067 -15.4533844 39.37083435 C-15.45981072 37.09871282 -15.45845976 34.82655805 -15.44995117 32.55444336 C-15.44144735 29.07540675 -15.47018596 25.59801467 -15.50195312 22.11914062 C-15.50356532 19.91276091 -15.50298725 17.70637828 -15.5 15.5 C-15.51123398 14.45824112 -15.52246796 13.41648224 -15.53404236 12.34315491 C-15.49584951 8.38977491 -15.45825397 5.3947146 -13.66064453 1.83935547 C-9.26527703 -0.3829669 -4.85193124 -0.0523216 0 0 Z " fill="#DFF0FA" transform="translate(131.00390625,115.50390625)"/>
<path d="M0 0 C-0.33 0.763125 -0.66 1.52625 -1 2.3125 C-2.17436686 4.99069135 -2.17436686 4.99069135 -2 8 C0.475 8.495 0.475 8.495 3 9 C3.99 7.35 4.98 5.7 6 4 C7.5 5.0625 7.5 5.0625 9 7 C9.67779562 11.49039596 9.32124667 13.47432363 6.9375 17.375 C3.51898875 20.42983984 1.51263341 20.82303398 -3 21 C-3.33 21.99 -3.66 22.98 -4 24 C-2.9275 24.598125 -1.855 25.19625 -0.75 25.8125 C3.33877482 28.37166122 6.91470199 31.35541369 10.5 34.5625 C11.04043945 35.03341064 11.58087891 35.50432129 12.13769531 35.98950195 C13.65625 37.37890625 13.65625 37.37890625 16 40 C16 44 16 44 14.3125 45.8125 C11.28520071 47.36705909 10.22554149 47.01001804 7 46 C4.2109375 44.0390625 4.2109375 44.0390625 1.375 41.625 C0.43398438 40.83351562 -0.50703125 40.04203125 -1.4765625 39.2265625 C-3.3927258 37.53583018 -5.23065104 35.84059791 -7 34 C-10.84872888 35.28290963 -11.01010539 36.5321899 -12.8125 40.0625 C-14.37890625 42.80078125 -14.37890625 42.80078125 -16 45 C-19.25 45.75 -19.25 45.75 -22 45 C-22.66 44.34 -23.32 43.68 -24 43 C-23.6824167 38.67481785 -21.78261429 35.44616625 -19.625 31.75 C-19.01914062 30.69296875 -18.41328125 29.6359375 -17.7890625 28.546875 C-16 26 -16 26 -13 25 C-14.55766862 23.55726615 -16.12135957 22.12103292 -17.6875 20.6875 C-18.55761719 19.88699219 -19.42773438 19.08648437 -20.32421875 18.26171875 C-22.9067049 15.94931172 -22.9067049 15.94931172 -25.77734375 14.3671875 C-28 13 -28 13 -28.875 10.4375 C-29 8 -29 8 -28 6 C-27.236875 6.309375 -26.47375 6.61875 -25.6875 6.9375 C-23.81210323 7.67893593 -21.91315348 8.36228217 -20 9 C-19.690625 9.78375 -19.38125 10.5675 -19.0625 11.375 C-17.8448523 14.38330609 -16.82891154 15.45695734 -14 17 C-13.01 16.67 -12.02 16.34 -11 16 C-11.33 15.34 -11.66 14.68 -12 14 C-12.67660495 8.13609041 -12.67660495 8.13609041 -10.953125 5.2421875 C-7.38099979 0.89259974 -5.48813083 -0.1444245 0 0 Z " fill="#8F8EC5" transform="translate(55,119)"/>
<path d="M0 0 C1.1653125 -0.00128906 2.330625 -0.00257812 3.53125 -0.00390625 C4.7584375 -0.00003906 5.985625 0.00382812 7.25 0.0078125 C9.09078125 0.00201172 9.09078125 0.00201172 10.96875 -0.00390625 C12.71671875 -0.00197266 12.71671875 -0.00197266 14.5 0 C15.57765625 0.00112793 16.6553125 0.00225586 17.765625 0.00341797 C20.25 0.1328125 20.25 0.1328125 21.25 1.1328125 C21.34971786 3.04739532 21.38080589 4.96563567 21.3828125 6.8828125 C21.38474609 8.63078125 21.38474609 8.63078125 21.38671875 10.4140625 C21.38285156 11.64125 21.37898438 12.8684375 21.375 14.1328125 C21.38080078 15.97359375 21.38080078 15.97359375 21.38671875 17.8515625 C21.38542969 19.016875 21.38414063 20.1821875 21.3828125 21.3828125 C21.38168457 22.46046875 21.38055664 23.538125 21.37939453 24.6484375 C21.25 27.1328125 21.25 27.1328125 20.25 28.1328125 C18.33541718 28.23253036 16.41717683 28.26361839 14.5 28.265625 C13.3346875 28.26691406 12.169375 28.26820312 10.96875 28.26953125 C9.7415625 28.26566406 8.514375 28.26179688 7.25 28.2578125 C5.40921875 28.26361328 5.40921875 28.26361328 3.53125 28.26953125 C2.3659375 28.26824219 1.200625 28.26695313 0 28.265625 C-1.07765625 28.26449707 -2.1553125 28.26336914 -3.265625 28.26220703 C-5.75 28.1328125 -5.75 28.1328125 -6.75 27.1328125 C-6.84971786 25.21822968 -6.88080589 23.29998933 -6.8828125 21.3828125 C-6.88410156 20.2175 -6.88539062 19.0521875 -6.88671875 17.8515625 C-6.88285156 16.624375 -6.87898438 15.3971875 -6.875 14.1328125 C-6.87886719 12.905625 -6.88273437 11.6784375 -6.88671875 10.4140625 C-6.88542969 9.24875 -6.88414063 8.0834375 -6.8828125 6.8828125 C-6.88168457 5.80515625 -6.88055664 4.7275 -6.87939453 3.6171875 C-6.6362729 -1.05074778 -4.09391107 0.00428489 0 0 Z " fill="#79D6C2" transform="translate(40.75,33.8671875)"/>
<path d="M0 0 C1.7315332 -0.02320312 1.7315332 -0.02320312 3.49804688 -0.046875 C10.20571162 -0.01608824 14.67863078 0.36662613 20.0625 4.5 C23.2140165 9.22727475 22.39638076 14.27991602 22.37817383 19.84179688 C22.37502149 21.86123001 22.39845198 23.87918625 22.42382812 25.8984375 C22.42447266 27.1771875 22.42511719 28.4559375 22.42578125 29.7734375 C22.42876221 30.94310059 22.43174316 32.11276367 22.43481445 33.31787109 C21.91896182 37.72680436 20.38360736 40.17635553 17.28271484 43.28320312 C12.85729014 45.70857334 7.63283169 45.01787742 2.70019531 45.00097656 C0.70097151 45.00000654 -1.29811583 45.04282701 -3.296875 45.0859375 C-14.07690522 45.10780369 -14.07690522 45.10780369 -17.765625 42.11328125 C-22.06424521 36.9410206 -22.15785093 33.00035243 -21.9375 26.5 C-20.6175 26.5 -19.2975 26.5 -17.9375 26.5 C-17.90011719 27.17546875 -17.86273438 27.8509375 -17.82421875 28.546875 C-17.75847656 29.43890625 -17.69273438 30.3309375 -17.625 31.25 C-17.56699219 32.13171875 -17.50898437 33.0134375 -17.44921875 33.921875 C-16.83963148 36.99307803 -16.14871321 38.28270008 -13.9375 40.5 C-10.99145717 41.08550583 -10.99145717 41.08550583 -7.625 40.9609375 C-6.38492188 40.95707031 -5.14484375 40.95320313 -3.8671875 40.94921875 C-2.57039063 40.92472656 -1.27359375 40.90023437 0.0625 40.875 C1.35929687 40.87371094 2.65609375 40.87242187 3.9921875 40.87109375 C10.91428764 41.09102867 10.91428764 41.09102867 17.0625 38.5 C18.82539794 33.21130618 18.37443019 27.59830937 18.4375 22.0625 C18.47488281 20.82177734 18.51226562 19.58105469 18.55078125 18.30273438 C18.56238281 17.11099609 18.57398438 15.91925781 18.5859375 14.69140625 C18.60575684 13.60029541 18.62557617 12.50918457 18.64599609 11.38500977 C18.28836608 8.34040671 18.28836608 8.34040671 15.90698242 6.14624023 C12.65397592 4.26356726 10.76235773 3.98499045 7.02734375 3.96875 C5.31901367 3.96101563 5.31901367 3.96101563 3.57617188 3.953125 C2.39603516 3.96859375 1.21589844 3.9840625 0 4 C-1.18400391 3.98453125 -2.36800781 3.9690625 -3.58789062 3.953125 C-4.72548828 3.95828125 -5.86308594 3.9634375 -7.03515625 3.96875 C-8.58988647 3.97551758 -8.58988647 3.97551758 -10.17602539 3.98242188 C-13.62359454 4.62859344 -14.80543588 5.76452151 -16.9375 8.5 C-17.62907955 11.30178374 -17.62907955 11.30178374 -17.6875 14.25 C-17.74421875 15.23484375 -17.8009375 16.2196875 -17.859375 17.234375 C-17.88515625 17.98203125 -17.9109375 18.7296875 -17.9375 19.5 C-19.2575 19.5 -20.5775 19.5 -21.9375 19.5 C-22.51154692 8.55058651 -22.51154692 8.55058651 -18.9375 4.5 C-13.26995774 -0.65928551 -7.37821054 -0.09854037 0 0 Z " fill="#5050DB" transform="translate(141.9375,121.5)"/>
<path d="M0 0 C4.60814655 1.25676724 7.03776264 3.83295306 10.21875 7.1953125 C11.87293637 8.87126449 13.56564131 10.26594694 15.4375 11.6875 C16.283125 12.450625 17.12875 13.21375 18 14 C18 18 18 18 16.3125 19.8125 C13.28850818 21.36536067 12.22286583 21.00132392 9 20 C6.24609375 18.109375 6.24609375 18.109375 3.4375 15.75 C2.50808594 14.98171875 1.57867187 14.2134375 0.62109375 13.421875 C-1.88619988 11.10515063 -3.94876079 8.7221151 -6 6 C-4.02 4.02 -2.04 2.04 0 0 Z " fill="#6E9DD2" transform="translate(53,145)"/>
<path d="M0 0 C1.65 0 3.3 0 5 0 C4.67 0.763125 4.34 1.52625 4 2.3125 C2.82563314 4.99069135 2.82563314 4.99069135 3 8 C4.65 8.33 6.3 8.66 8 9 C8.99 7.35 9.98 5.7 11 4 C12.5 5.0625 12.5 5.0625 14 7 C14.67779562 11.49039596 14.32124667 13.47432363 11.9375 17.375 C8.49741369 20.44911968 6.50685187 20.65331909 2 21 C1.67 21.66 1.34 22.32 1 23 C1 22.34 1 21.68 1 21 C0.34 21 -0.32 21 -1 21 C-1.02895976 17.87501937 -1.04678483 14.7500731 -1.0625 11.625 C-1.07087891 10.73554688 -1.07925781 9.84609375 -1.08789062 8.9296875 C-1.09111328 8.07890625 -1.09433594 7.228125 -1.09765625 6.3515625 C-1.10289307 5.56604004 -1.10812988 4.78051758 -1.11352539 3.97119141 C-1 2 -1 2 0 0 Z " fill="#7497CD" transform="translate(50,119)"/>
<path d="M0 0 C0.33 0 0.66 0 1 0 C1 7.59 1 15.18 1 23 C1.66 23 2.32 23 3 23 C1.75046775 27.99812899 0.32894073 30.19900852 -4 33 C-8.78100415 33.81365325 -13.59470454 33.60287642 -18.4375 33.5625 C-20.40299805 33.59827148 -20.40299805 33.59827148 -22.40820312 33.63476562 C-33.11512487 33.61841918 -33.11512487 33.61841918 -36.82421875 30.609375 C-41.1313534 25.44390652 -41.2202974 21.49877343 -41 15 C-39.68 15 -38.36 15 -37 15 C-36.96261719 15.67546875 -36.92523438 16.3509375 -36.88671875 17.046875 C-36.82097656 17.93890625 -36.75523438 18.8309375 -36.6875 19.75 C-36.62949219 20.63171875 -36.57148437 21.5134375 -36.51171875 22.421875 C-35.90213148 25.49307803 -35.21121321 26.78270008 -33 29 C-30.05395717 29.58550583 -30.05395717 29.58550583 -26.6875 29.4609375 C-25.44742188 29.45707031 -24.20734375 29.45320313 -22.9296875 29.44921875 C-21.63289063 29.42472656 -20.33609375 29.40023437 -19 29.375 C-17.70320313 29.37371094 -16.40640625 29.37242187 -15.0703125 29.37109375 C-8.14821236 29.59102867 -8.14821236 29.59102867 -2 27 C-0.98412022 23.95236066 -0.80195594 21.65281033 -0.68359375 18.45703125 C-0.62075195 16.84731445 -0.62075195 16.84731445 -0.55664062 15.20507812 C-0.51732422 14.08552734 -0.47800781 12.96597656 -0.4375 11.8125 C-0.37272461 10.11577148 -0.37272461 10.11577148 -0.30664062 8.38476562 C-0.20050901 5.58996646 -0.09845615 2.79507838 0 0 Z " fill="#955EEC" transform="translate(161,133)"/>
<path d="M0 0 C0.99 0.33 1.98 0.66 3 1 C3 2.32 3 3.64 3 5 C3.99 5.33 4.98 5.66 6 6 C4.95695037 11.25206168 2.34631934 15.85767398 -1 20 C-4.25 20.75 -4.25 20.75 -7 20 C-7.66 19.34 -8.32 18.68 -9 18 C-8.69430124 13.62850772 -6.72440202 10.45125909 -4.5 6.75 C-3.8709375 5.69296875 -3.241875 4.6359375 -2.59375 3.546875 C-1 1 -1 1 0 0 Z " fill="#B68BC0" transform="translate(40,144)"/>
<path d="M0 0 C0.79664063 0.00257812 1.59328125 0.00515625 2.4140625 0.0078125 C3.20554687 0.00523438 3.99703125 0.00265625 4.8125 0 C7.0390625 0.1328125 7.0390625 0.1328125 10.0390625 1.1328125 C10.0390625 2.1228125 10.0390625 3.1128125 10.0390625 4.1328125 C11.0290625 4.1328125 12.0190625 4.1328125 13.0390625 4.1328125 C13.6990625 3.4728125 14.3590625 2.8128125 15.0390625 2.1328125 C15.0390625 4.1128125 15.0390625 6.0928125 15.0390625 8.1328125 C11.0790625 7.8028125 7.1190625 7.4728125 3.0390625 7.1328125 C3.3690625 8.1228125 3.6990625 9.1128125 4.0390625 10.1328125 C6.3490625 10.4628125 8.6590625 10.7928125 11.0390625 11.1328125 C11.0390625 11.4628125 11.0390625 11.7928125 11.0390625 12.1328125 C6.7490625 12.1328125 2.4590625 12.1328125 -1.9609375 12.1328125 C-3.1507681 9.7531513 -3.09443716 8.21795515 -3.0859375 5.5703125 C-3.08980469 4.36181641 -3.08980469 4.36181641 -3.09375 3.12890625 C-2.91525458 0.44622515 -2.68293739 0.18171289 0 0 Z " fill="#84DFCB" transform="translate(36.9609375,33.8671875)"/>
<path d="M0 0 C0.763125 0.309375 1.52625 0.61875 2.3125 0.9375 C4.18789677 1.67893593 6.08684652 2.36228217 8 3 C8.3403125 4.051875 8.3403125 4.051875 8.6875 5.125 C10.41555217 8.91025713 12.98632329 10.71985169 16.22265625 13.25390625 C18.1802824 15.1771126 18.61921331 16.32277663 19 19 C14.0878573 19 13.49437311 18.00303842 10.0625 14.6875 C7.52094694 12.24808045 5.27519321 10.16270263 2.23828125 8.3671875 C0 7 0 7 -0.875 4.4375 C-1 2 -1 2 0 0 Z " fill="#DA84B8" transform="translate(27,125)"/>
<path d="M0 0 C3.71045247 1.57780923 6.29906384 3.90703248 9.25 6.625 C10.14203125 7.44226563 11.0340625 8.25953125 11.953125 9.1015625 C12.96632813 10.04128906 12.96632813 10.04128906 14 11 C13.67 11.99 13.34 12.98 13 14 C12.34 14 11.68 14 11 14 C11 14.66 11 15.32 11 16 C7.84375314 14.61263874 5.80136567 12.99607292 3.4375 10.5 C1.32475777 8.27903267 -0.41613626 6.72257583 -3 5 C-2.67 4.01 -2.34 3.02 -2 2 C-1.34 2 -0.68 2 0 2 C0 1.34 0 0.68 0 0 Z " fill="#A1D5EF" transform="translate(54,148)"/>
<path d="M0 0 C1.5 1.0625 1.5 1.0625 3 3 C3.50313223 6.33325099 3.67727689 8.76907613 2.015625 11.7890625 C0.75 13.4375 0.75 13.4375 -2 16 C-3.32 16 -4.64 16 -6 16 C-6 12.7 -6 9.4 -6 6 C-5.01 5.67 -4.02 5.34 -3 5 C-1.30117552 2.50240018 -1.30117552 2.50240018 0 0 Z " fill="#3BA6DB" transform="translate(61,123)"/>
<path d="M0 0 C0.721875 0.00257812 1.44375 0.00515625 2.1875 0.0078125 C2.909375 0.00523438 3.63125 0.00265625 4.375 0 C6.1875 0.1328125 6.1875 0.1328125 7.1875 1.1328125 C7.3203125 2.9453125 7.3203125 2.9453125 7.3125 5.1328125 C7.31507812 5.8546875 7.31765625 6.5765625 7.3203125 7.3203125 C7.1875 9.1328125 7.1875 9.1328125 6.1875 10.1328125 C4.375 10.265625 4.375 10.265625 2.1875 10.2578125 C1.465625 10.26039062 0.74375 10.26296875 0 10.265625 C-1.8125 10.1328125 -1.8125 10.1328125 -2.8125 9.1328125 C-2.9453125 7.3203125 -2.9453125 7.3203125 -2.9375 5.1328125 C-2.94007812 4.4109375 -2.94265625 3.6890625 -2.9453125 2.9453125 C-2.7645617 0.47859567 -2.46671683 0.1807508 0 0 Z " fill="#258B7E" transform="translate(36.8125,51.8671875)"/>
<path d="M0 0 C6.15234375 -0.09765625 6.15234375 -0.09765625 8 0 C9 1 9 1 9.1328125 2.8125 C9.13023438 3.534375 9.12765625 4.25625 9.125 5 C9.12757812 5.721875 9.13015625 6.44375 9.1328125 7.1875 C9 9 9 9 8 10 C5.32941149 10.14115161 2.67567762 10.04247107 0 10 C0 6.7 0 3.4 0 0 Z " fill="#258C7F" transform="translate(53,34)"/>
<path d="M0 0 C1.48484412 0.39595843 2.9628831 0.81750706 4.4375 1.25 C5.26121094 1.48203125 6.08492187 1.7140625 6.93359375 1.953125 C9 3 9 3 9.78515625 4.921875 C10 7 10 7 10 10 C8.17806158 11.9249647 6.10764717 13.37535531 4 15 C2.5 13.75 2.5 13.75 1 12 C1 10.68 1 9.36 1 8 C1.66 7.67 2.32 7.34 3 7 C2.38722388 4.03824877 1.74627478 2.61941217 0 0 Z " fill="#C6D2E9" transform="translate(42,137)"/>
<path d="M0 0 C0.33 4.29 0.66 8.58 1 13 C-0.98 13 -2.96 13 -5 13 C-5.66 12.34 -6.32 11.68 -7 11 C-6.64748146 7.65107386 -5.77589758 4.86116832 -4 2 C-1 0 -1 0 0 0 Z " fill="#D279B2" transform="translate(38,151)"/>
<path d="M0 0 C3.38004017 1.50396283 5.95808299 3.45716337 8.75 5.875 C9.54921875 6.55304688 10.3484375 7.23109375 11.171875 7.9296875 C13 10 13 10 13 14 C11.3125 15.8125 11.3125 15.8125 9 17 C6.25 16.6875 6.25 16.6875 4 16 C4 15.01 4 14.02 4 13 C4.99 13.66 5.98 14.32 7 15 C7.66 13.35 8.32 11.7 9 10 C8.3503125 9.44570312 7.700625 8.89140625 7.03125 8.3203125 C6.1959375 7.59585938 5.360625 6.87140625 4.5 6.125 C3.6646875 5.40570313 2.829375 4.68640625 1.96875 3.9453125 C1.3190625 3.30335938 0.669375 2.66140625 0 2 C0 1.34 0 0.68 0 0 Z " fill="#36B2E4" transform="translate(58,149)"/>
<path d="M0 0 C3.96 0 7.92 0 12 0 C12 3.96 12 7.92 12 12 C11.01 12 10.02 12 9 12 C8.67 9.36 8.34 6.72 8 4 C5.36 3.67 2.72 3.34 0 3 C0 2.01 0 1.02 0 0 Z " fill="#75D2BF" transform="translate(35,49)"/>
<path d="M0 0 C0.66 0 1.32 0 2 0 C2.33 2.64 2.66 5.28 3 8 C5.64 8.33 8.28 8.66 11 9 C10.67 9.99 10.34 10.98 10 12 C2.71641791 12.35820896 2.71641791 12.35820896 0 11 C-1.66130953 7.67738094 -1.23735237 4.67896174 -1 1 C-0.67 0.67 -0.34 0.34 0 0 Z " fill="#3C978D" transform="translate(29,56)"/>
<path d="M0 0 C0.99 0.33 1.98 0.66 3 1 C3.35820896 8.28358209 3.35820896 8.28358209 2 11 C-1.27967758 12.63983879 -4.37138689 12.17845638 -8 12 C-8.33 11.01 -8.66 10.02 -9 9 C-6.36 8.67 -3.72 8.34 -1 8 C-0.67 5.36 -0.34 2.72 0 0 Z " fill="#3C978D" transform="translate(65,56)"/>
<path d="M0 0 C4.95 0 9.9 0 15 0 C15 4.95 15 9.9 15 15 C14.34 15 13.68 15 13 15 C13 10.71 13 6.42 13 2 C8.71 2 4.42 2 0 2 C0 1.34 0 0.68 0 0 Z " fill="#198476" transform="translate(34,47)"/>
<path d="M0 0 C7.28358209 -0.35820896 7.28358209 -0.35820896 10 1 C11.63983879 4.27967758 11.17845638 7.37138689 11 11 C10.01 11.33 9.02 11.66 8 12 C7.67 9.36 7.34 6.72 7 4 C4.36 3.67 1.72 3.34 -1 3 C-0.67 2.01 -0.34 1.02 0 0 Z " fill="#3C968D" transform="translate(57,28)"/>
<path d="M0 0 C0.33 0.99 0.66 1.98 1 3 C-1.64 3.33 -4.28 3.66 -7 4 C-7.33 6.64 -7.66 9.28 -8 12 C-8.99 11.67 -9.98 11.34 -11 11 C-11.35820896 3.71641791 -11.35820896 3.71641791 -10 1 C-6.72032242 -0.63983879 -3.62861311 -0.17845638 0 0 Z " fill="#3B968D" transform="translate(39,28)"/>
<path d="M0 0 C4.75 1.875 4.75 1.875 7 3 C6.67 5.31 6.34 7.62 6 10 C2.34683329 8.75023244 1.21934164 8.32901247 -1 5 C-0.625 2.3125 -0.625 2.3125 0 0 Z " fill="#EE76AE" transform="translate(27,125)"/>
<path d="M0 0 C6.15234375 -0.09765625 6.15234375 -0.09765625 8 0 C9 1 9 1 9.09765625 2.84765625 C9.04882812 5.92382812 9.04882812 5.92382812 9 9 C7.02 9 5.04 9 3 9 C3.99 8.67 4.98 8.34 6 8 C6 6.35 6 4.7 6 3 C4.35 3 2.7 3 1 3 C0.67 4.32 0.34 5.64 0 7 C0 4.69 0 2.38 0 0 Z " fill="#248C7E" transform="translate(53,52)"/>
<path d="M0 0 C0.33 0 0.66 0 1 0 C1.22262606 2.08185451 1.42757926 4.16560426 1.625 6.25 C1.74101563 7.41015625 1.85703125 8.5703125 1.9765625 9.765625 C1.99955595 12.93872091 1.69705154 14.38317244 0 17 C-0.66 17 -1.32 17 -2 17 C-2.05398987 14.72942623 -2.09278742 12.45848712 -2.125 10.1875 C-2.14820313 8.92292969 -2.17140625 7.65835938 -2.1953125 6.35546875 C-2 3 -2 3 0 0 Z " fill="#BF7FB7" transform="translate(40,146)"/>
<path d="M0 0 C1.23556641 0.01740234 1.23556641 0.01740234 2.49609375 0.03515625 C3.32238281 0.04417969 4.14867187 0.05320313 5 0.0625 C5.63808594 0.07410156 6.27617188 0.08570313 6.93359375 0.09765625 C6.93359375 1.08765625 6.93359375 2.07765625 6.93359375 3.09765625 C4.62359375 3.09765625 2.31359375 3.09765625 -0.06640625 3.09765625 C-0.06640625 5.07765625 -0.06640625 7.05765625 -0.06640625 9.09765625 C-1.05640625 9.09765625 -2.04640625 9.09765625 -3.06640625 9.09765625 C-3.1640625 2.9453125 -3.1640625 2.9453125 -3.06640625 1.09765625 C-2.06640625 0.09765625 -2.06640625 0.09765625 0 0 Z " fill="#2B8F82" transform="translate(37.06640625,33.90234375)"/>
<path d="M0 0 C0.66 0.66 1.32 1.32 2 2 C4.58354218 2.16687448 4.58354218 2.16687448 7 2 C6.95875 2.78375 6.9175 3.5675 6.875 4.375 C6.71271266 7.16116119 6.71271266 7.16116119 9 9 C2.84765625 9.09765625 2.84765625 9.09765625 1 9 C0 8 0 8 -0.09765625 6.15234375 C-0.06510417 4.1015625 -0.03255208 2.05078125 0 0 Z " fill="#4CAE9E" transform="translate(52,53)"/>
<path d="M0 0 C6.15234375 -0.09765625 6.15234375 -0.09765625 8 0 C9 1 9 1 9.09765625 2.84765625 C9.04882812 5.92382812 9.04882812 5.92382812 9 9 C8.34 8.34 7.68 7.68 7 7 C4.41645782 6.83312552 4.41645782 6.83312552 2 7 C2.04125 6.21625 2.0825 5.4325 2.125 4.625 C2.28728734 1.83883881 2.28728734 1.83883881 0 0 Z " fill="#4CAF9E" transform="translate(35,52)"/>
<path d="M0 0 C0.33 3.3 0.66 6.6 1 10 C-0.65 10.33 -2.3 10.66 -4 11 C-4 7.7 -4 4.4 -4 1 C-1 0 -1 0 0 0 Z " fill="#509FD6" transform="translate(59,128)"/>
<path d="M0 0 C1.32 0.33 2.64 0.66 4 1 C4 3.97 4 6.94 4 10 C2.68 10 1.36 10 0 10 C0 6.7 0 3.4 0 0 Z " fill="#766FE4" transform="translate(120,131)"/>
<path d="M0 0 C1.5 1.0625 1.5 1.0625 3 3 C3.25 6.625 3.25 6.625 3 10 C2 11 2 11 -1.375 11.25 C-5 11 -5 11 -6.9375 9.5 C-7.288125 9.005 -7.63875 8.51 -8 8 C-4.535 7.505 -4.535 7.505 -1 7 C-0.67 4.69 -0.34 2.38 0 0 Z " fill="#C2E3E7" transform="translate(62,54)"/>
<path d="M0 0 C3.78517206 0.25662183 5.01775858 0.68704824 7.6875 3.25 C5.0475 3.58 2.4075 3.91 -0.3125 4.25 C-0.6425 6.89 -0.9725 9.53 -1.3125 12.25 C-3.87545176 9.58025858 -4.30587817 8.34767206 -4.5625 4.5625 C-4.24232456 0.32017544 -4.24232456 0.32017544 0 0 Z " fill="#C0E2E5" transform="translate(35.3125,30.75)"/>
<path d="M0 0 C0.33 0 0.66 0 1 0 C1.33 2.31 1.66 4.62 2 7 C4.31 7.33 6.62 7.66 9 8 C7.9375 9.5 7.9375 9.5 6 11 C2.375 11.25 2.375 11.25 -1 11 C-2 10 -2 10 -2.1875 6.625 C-2 3 -2 3 0 0 Z " fill="#C1E2E6" transform="translate(33,54)"/>
<path d="M0 0 C1 1 1 1 1.25 4.375 C1 8 1 8 -0.5 9.9375 C-0.995 10.288125 -1.49 10.63875 -2 11 C-2.33 8.69 -2.66 6.38 -3 4 C-5.31 3.67 -7.62 3.34 -10 3 C-7.29912343 -0.81300222 -4.38076395 -0.32450103 0 0 Z " fill="#C1E2E6" transform="translate(64,31)"/>
<path d="M0 0 C1.70884005 1.62339805 3.37446717 3.29319053 5 5 C5 5.66 5 6.32 5 7 C5.33 7.66 5.66 8.32 6 9 C2.12867972 8.42647107 -0.08172796 6.51295648 -3 4 C-2.67 3.01 -2.34 2.02 -2 1 C-1.34 0.67 -0.68 0.34 0 0 Z " fill="#98C5E6" transform="translate(54,149)"/>
<path d="M0 0 C0.66 0 1.32 0 2 0 C2.33 2.31 2.66 4.62 3 7 C5.31 7.33 7.62 7.66 10 8 C10 8.66 10 9.32 10 10 C8.52093108 10.02689216 7.04172517 10.04634621 5.5625 10.0625 C4.32693359 10.07990234 4.32693359 10.07990234 3.06640625 10.09765625 C1 10 1 10 0 9 C-0.07179964 7.48071962 -0.08392007 5.95832518 -0.0625 4.4375 C-0.05347656 3.61121094 -0.04445313 2.78492188 -0.03515625 1.93359375 C-0.02355469 1.29550781 -0.01195313 0.65742187 0 0 Z " fill="#1A4B8A" transform="translate(123,57)"/>
<path d="M0 0 C0.66 0 1.32 0 2 0 C2.02689216 1.47906892 2.04634621 2.95827483 2.0625 4.4375 C2.07410156 5.26121094 2.08570313 6.08492187 2.09765625 6.93359375 C2 9 2 9 1 10 C-0.51928038 10.07179964 -2.04167482 10.08392007 -3.5625 10.0625 C-4.38878906 10.05347656 -5.21507812 10.04445313 -6.06640625 10.03515625 C-6.70449219 10.02355469 -7.34257812 10.01195313 -8 10 C-8 9.34 -8 8.68 -8 8 C-5.36 8 -2.72 8 0 8 C0 5.36 0 2.72 0 0 Z " fill="#1A304D" transform="translate(159,57)"/>
<path d="M0 0 C0.99 0 1.98 0 3 0 C3 2.64 3 5.28 3 8 C2.34 7.34 1.68 6.68 1 6 C-1.58354218 5.83312552 -1.58354218 5.83312552 -4 6 C-4 4.68 -4 3.36 -4 2 C-2.68 2 -1.36 2 0 2 C0 1.34 0 0.68 0 0 Z " fill="#50B1A1" transform="translate(59,35)"/>
<path d="M0 0 C2.97 0 5.94 0 9 0 C9 0.66 9 1.32 9 2 C6.69 2.33 4.38 2.66 2 3 C1.67 5.31 1.34 7.62 1 10 C0.34 10 -0.32 10 -1 10 C-1.125 2.25 -1.125 2.25 0 0 Z " fill="#174988" transform="translate(124,29)"/>
<path d="M0 0 C1.47906892 -0.02689216 2.95827483 -0.04634621 4.4375 -0.0625 C5.26121094 -0.07410156 6.08492187 -0.08570312 6.93359375 -0.09765625 C9 0 9 0 10 1 C10.07179964 2.51928038 10.08392007 4.04167482 10.0625 5.5625 C10.05347656 6.38878906 10.04445312 7.21507812 10.03515625 8.06640625 C10.02355469 8.70449219 10.01195312 9.34257813 10 10 C9.34 10 8.68 10 8 10 C8 7.36 8 4.72 8 2 C5.36 2 2.72 2 0 2 C0 1.34 0 0.68 0 0 Z " fill="#1A304D" transform="translate(151,29)"/>
<path d="M0 0 C2 3 2 3 2 5 C-1.3 5 -4.6 5 -8 5 C-8 4.34 -8 3.68 -8 3 C-6.68 3 -5.36 3 -4 3 C-4 2.34 -4 1.68 -4 1 C-2.68 0.67 -1.36 0.34 0 0 Z " fill="#50B1A1" transform="translate(60,44)"/>
<path d="M0 0 C0.33 0 0.66 0 1 0 C1 3.63 1 7.26 1 11 C-0.32 10.34 -1.64 9.68 -3 9 C-2.44271087 5.65626525 -1.64826111 2.96687001 0 0 Z " fill="#E581B5" transform="translate(34,153)"/>
<path d="M0 0 C0.66 0 1.32 0 2 0 C2 3.63 2 7.26 2 11 C1.34 11 0.68 11 0 11 C-1.62651522 7.74696956 -1.11453156 4.60774398 -1 1 C-0.67 0.67 -0.34 0.34 0 0 Z " fill="#8359E7" transform="translate(121,147)"/>
<path d="M0 0 C1.32 0.66 2.64 1.32 4 2 C2.68 3.65 1.36 5.3 0 7 C-1.32 6.34 -2.64 5.68 -4 5 C-2.68 3.35 -1.36 1.7 0 0 Z " fill="#8F96CA" transform="translate(48,142)"/>
<path d="M0 0 C0.66 0 1.32 0 2 0 C2 1.98 2 3.96 2 6 C3.98 6 5.96 6 8 6 C8 6.66 8 7.32 8 8 C5.66705225 8.04241723 3.33297433 8.04092937 1 8 C0 7 0 7 -0.0625 3.4375 C-0.041875 2.303125 -0.02125 1.16875 0 0 Z " fill="#24528E" transform="translate(129,53)"/>
<path d="M0 0 C2.97 0 5.94 0 9 0 C9 0.99 9 1.98 9 3 C6.03 3 3.06 3 0 3 C0 2.01 0 1.02 0 0 Z " fill="#248F80" transform="translate(40,41)"/>
<path d="M0 0 C1.134375 0.020625 2.26875 0.04125 3.4375 0.0625 C3.4375 0.7225 3.4375 1.3825 3.4375 2.0625 C1.4575 2.0625 -0.5225 2.0625 -2.5625 2.0625 C-2.5625 4.0425 -2.5625 6.0225 -2.5625 8.0625 C-3.2225 8.0625 -3.8825 8.0625 -4.5625 8.0625 C-4.60491723 5.72955225 -4.60342937 3.39547433 -4.5625 1.0625 C-3.5625 0.0625 -3.5625 0.0625 0 0 Z " fill="#24538E" transform="translate(133.5625,34.9375)"/>
<path d="M0 0 C1.65 1.32 3.3 2.64 5 4 C4.67 5.32 4.34 6.64 4 8 C2.68 7.34 1.36 6.68 0 6 C0 4.02 0 2.04 0 0 Z " fill="#AA8BC1" transform="translate(41,137)"/>
<path d="M0 0 C2 1 2 1 3 3 C1.33333333 4.66666667 -0.33333333 6.33333333 -2 8 C-2.66 8 -3.32 8 -4 8 C-3.50168276 4.31245243 -2.89932357 2.39509338 0 0 Z " fill="#585EDD" transform="translate(125,124)"/>
<path d="M0 0 C2 2 2 2 2.25 5.5 C2 9 2 9 0 11 C-1.49297212 8.01405576 -1.11755228 5.29146376 -1 2 C-0.67 1.34 -0.34 0.68 0 0 Z " fill="#A797C8" transform="translate(44,124)"/>
<path d="M0 0 C0.66 0 1.32 0 2 0 C2.04241723 2.33294775 2.04092937 4.66702567 2 7 C1 8 1 8 -2.0625 8.0625 C-3.031875 8.041875 -4.00125 8.02125 -5 8 C-5 7.34 -5 6.68 -5 6 C-3.35 6 -1.7 6 0 6 C0 4.02 0 2.04 0 0 Z " fill="#1C324F" transform="translate(153,53)"/>
<path d="M0 0 C2.97 0.495 2.97 0.495 6 1 C6 3.64 6 6.28 6 9 C5.67 9 5.34 9 5 9 C4.67 7.35 4.34 5.7 4 4 C3.01 4.495 3.01 4.495 2 5 C1.34 4.67 0.68 4.34 0 4 C0 2.68 0 1.36 0 0 Z " fill="#50B0A1" transform="translate(47,34)"/>
<path d="M0 0 C1.99954746 -0.04254356 4.00041636 -0.04080783 6 0 C7 1 7 1 7.0625 4.5625 C7.041875 5.696875 7.02125 6.83125 7 8 C6.34 8 5.68 8 5 8 C5 6.02 5 4.04 5 2 C3.35 2 1.7 2 0 2 C0 1.34 0 0.68 0 0 Z " fill="#1C3350" transform="translate(148,35)"/>
<path d="M0 0 C3.35435922 1.38801071 5.11290303 2.88629 7 6 C7 6.99 7 7.98 7 9 C3.83884224 7.63016497 3.0072908 7.0109362 1 4 C1 3.34 1 2.68 1 2 C0.67 1.34 0.34 0.68 0 0 Z " fill="#A3D7F0" transform="translate(57,154)"/>
<path d="M0 0 C1.5 1.0625 1.5 1.0625 3 3 C3.1875 6.6875 3.1875 6.6875 3 10 C2.01 10.495 2.01 10.495 1 11 C0.855625 9.906875 0.71125 8.81375 0.5625 7.6875 C0.11711896 4.06877013 0.11711896 4.06877013 -1 1 C-0.67 0.67 -0.34 0.34 0 0 Z " fill="#43B1E2" transform="translate(61,123)"/>
<path d="M0 0 C1.32 0 2.64 0 4 0 C3.67 1.65 3.34 3.3 3 5 C1.68 4.67 0.36 4.34 -1 4 C-0.67 2.68 -0.34 1.36 0 0 Z " fill="#7961E5" transform="translate(151,142)"/>
<path d="M0 0 C2.475 0.495 2.475 0.495 5 1 C4.67 2.32 4.34 3.64 4 5 C2.68 4.67 1.36 4.34 0 4 C0 2.68 0 1.36 0 0 Z " fill="#7961E5" transform="translate(130,142)"/>
<path d="M0 0 C3.79588866 0.54226981 5.47211993 2.20127563 8 5 C7.67 5.99 7.34 6.98 7 8 C5.83035398 6.8572081 4.66435444 5.71068285 3.5 4.5625 C2.8503125 3.92441406 2.200625 3.28632813 1.53125 2.62890625 C0 1 0 1 0 0 Z " fill="#5EA9DA" transform="translate(53,156)"/>
<path d="M0 0 C1.98 0.495 1.98 0.495 4 1 C3.67 2.32 3.34 3.64 3 5 C1.68 4.67 0.36 4.34 -1 4 C-0.67 2.68 -0.34 1.36 0 0 Z " fill="#745AE4" transform="translate(141,142)"/>
<path d="M0 0 C1.65 1.65 3.3 3.3 5 5 C4.01 5.66 3.02 6.32 2 7 C0.35 5.02 -1.3 3.04 -3 1 C-2.01 0.67 -1.02 0.34 0 0 Z " fill="#86A1D2" transform="translate(50,150)"/>
<path d="M0 0 C2.62187494 1.04874998 3.79371361 1.64931313 5.25 4.125 C5.4975 4.74375 5.745 5.3625 6 6 C5.34 6 4.68 6 4 6 C4 6.66 4 7.32 4 8 C2 7 2 7 1 4 C1 3.34 1 2.68 1 2 C0.67 1.34 0.34 0.68 0 0 Z " fill="#6EC6EB" transform="translate(61,156)"/>
<path d="M0 0 C3.7952131 1.49097658 5.61042731 3.75700849 8 7 C4.66272214 5.82744291 2.22562513 4.81131596 0 2 C0 1.34 0 0.68 0 0 Z " fill="#40ACDF" transform="translate(58,149)"/>
<path d="M0 0 C0.99 0.33 1.98 0.66 3 1 C3 2.98 3 4.96 3 7 C2.01 6.34 1.02 5.68 0 5 C-0.1875 2.375 -0.1875 2.375 0 0 Z " fill="#C182B9" transform="translate(38,135)"/>
<path d="M0 0 C0.598125 0.20625 1.19625 0.4125 1.8125 0.625 C1.049375 1.0375 0.28625 1.45 -0.5 1.875 C-3.1241642 3.58375809 -4.49071976 5.03517753 -6.1875 7.625 C-5.875 4.75 -5.875 4.75 -5.1875 1.625 C-2.1875 -0.375 -2.1875 -0.375 0 0 Z " fill="#D8DEF0" transform="translate(122.1875,116.375)"/>
</svg>
